<?xml version="1.0" standalone="no"?>
<!DOCTYPE svg PUBLIC "-//W3C//DTD SVG 20010904//EN"
 "http://www.w3.org/TR/2001/REC-SVG-20010904/DTD/svg10.dtd">
<svg version="1.0" xmlns="http://www.w3.org/2000/svg"
 width="269.000000pt" height="269.000000pt" viewBox="0 0 269.000000 269.000000"
 preserveAspectRatio="xMidYMid meet">
<metadata>
Created by potrace 1.14, written by Peter Selinger 2001-2017
</metadata>
<g transform="translate(0.000000,269.000000) scale(0.100000,-0.100000)"
fill="#000000" stroke="none">
<path d="M1178 2655 c-2 -3 -24 -7 -49 -9 -89 -10 -340 -83 -359 -105 -3 -3
-27 -17 -55 -29 -51 -25 -157 -92 -210 -133 -47 -37 -187 -180 -220 -224 -17
-22 -36 -46 -42 -53 -7 -7 -13 -20 -13 -28 0 -8 -4 -14 -10 -14 -5 0 -10 -6
-10 -13 0 -8 -9 -22 -19 -31 -11 -10 -23 -31 -26 -47 -4 -16 -10 -29 -13 -29
-23 0 -115 -283 -129 -400 -9 -70 -10 -288 -2 -360 7 -60 39 -189 64 -260 19
-54 87 -203 96 -210 3 -3 13 -18 22 -35 34 -66 123 -175 219 -268 55 -53 105
-97 110 -97 5 0 16 -6 23 -12 31 -28 43 -36 91 -63 122 -70 287 -136 368 -149
21 -4 41 -8 45 -10 18 -11 140 -21 261 -21 175 0 240 10 390 58 36 12 67 22
70 22 14 4 70 29 130 59 207 104 418 305 537 511 42 74 115 248 127 307 3 13
10 41 15 63 26 102 35 347 18 460 -14 98 -19 120 -28 138 -5 9 -7 17 -5 17 11
0 -65 200 -99 259 -19 35 -35 65 -35 68 0 5 -58 91 -75 110 -30 35 -35 43 -30
43 4 0 -38 44 -92 99 -200 202 -427 320 -723 376 -40 8 -336 16 -342 10z"/>
</g>
</svg>
